<svg xmlns="http://www.w3.org/2000/svg" width="26" height="26"><g fill="#fff" transform="translate(5 -1031.362)"><circle cx="8" cy="1044.362" r="13" fill="#ffa40b" fill-rule="evenodd"/><path fill="#ff7712" style="line-height:normal;text-indent:0;text-align:start;text-decoration-line:none;text-decoration-style:solid;text-decoration-color:#000;text-transform:none;block-progression:tb;isolation:auto;mix-blend-mode:normal;marker:none" d="M14.152 25.94a13 13 0 0 0 1.057-.13 13 13 0 0 0 1.268-.285 13 13 0 0 0 1.234-.408 13 13 0 0 0 1.185-.531 13 13 0 0 0 1.127-.647 13 13 0 0 0 1.057-.755 13 13 0 0 0 .977-.858 13 13 0 0 0 .886-.951 13 13 0 0 0 .786-1.035 13 13 0 0 0 .68-1.108 13 13 0 0 0 .566-1.17 13 13 0 0 0 .445-1.22 13 13 0 0 0 .32-1.26 13 13 0 0 0 .05-.328l-5.005-5.004c-.005-.005-.012-.006-.017-.012a1.183 1.183 0 0 0-.315-.199 3.325 3.325 0 0 0-.625-.209c-.465-.114-1.032-.2-1.605-.28-.012 0-.022-.001-.034-.003l-4.582-4.582c-.028-.029-.068-.05-.101-.076-.032-.026-.059-.053-.096-.075-.019-.01-.04-.018-.06-.027a.713.713 0 0 0-.301-.068c-.334 0-.504.174-.647.324-.142.15-.264.326-.39.53-.253.405-.51.916-.764 1.435-.253.519-.5 1.045-.71 1.453-.106.204-.203.38-.28.502-.046.072-.09.124-.11.148a1.2 1.2 0 0 1-.175.055 6.969 6.969 0 0 1-.567.102c-.455.066-1.035.128-1.61.199-.574.07-1.142.147-1.609.254-.233.053-.44.111-.628.197-.189.086-.412.188-.518.504-.106.315.01.531.11.713.098.181.23.352.384.535.19.224.415.462.658.705l2.102 2.102.039.054c.001.032.005.1-.002.184-.012.144-.04.342-.078.568-.078.453-.196 1.02-.307 1.586-.11.567-.213 1.132-.256 1.608-.02.237-.029.45-.005.656.01.094.027.195.062.297a.694.694 0 0 0 .147.242c.007.008.007.017.015.025l6.242 6.242z" color="#000" font-family="sans-serif" font-weight="400" transform="translate(-5 1031.362)"/><path style="line-height:normal;text-indent:0;text-align:start;text-decoration-line:none;text-decoration-style:solid;text-decoration-color:#000;text-transform:none;block-progression:tb;isolation:auto;mix-blend-mode:normal;marker:none" d="M78.804 1014.566c-.313 0-.471.179-.605.333a3.343 3.343 0 0 0-.366.545c-.237.418-.478.945-.715 1.48-.237.534-.468 1.075-.665 1.496-.099.21-.19.39-.262.516-.043.074-.084.126-.103.152-.029.012-.087.038-.165.058-.132.034-.317.07-.53.104-.427.068-.969.132-1.507.205-.538.072-1.07.151-1.507.261a2.864 2.864 0 0 0-.59.204c-.176.088-.384.194-.483.519-.099.325.01.546.103.733.092.187.214.363.359.551.289.376.671.79 1.062 1.203.39.412.788.82 1.092 1.156.151.167.28.318.367.432.05.067.083.127.1.155 0 .033.005.102-.001.19a7.936 7.936 0 0 1-.074.584c-.072.466-.184 1.051-.288 1.635-.103.583-.199 1.163-.239 1.653-.02.245-.027.466-.005.677.022.212.05.461.3.665.252.203.477.159.668.12.191-.04.381-.112.589-.205.415-.185.893-.456 1.371-.736.478-.28.955-.568 1.34-.781.192-.107.362-.194.489-.25.074-.031.135-.047.164-.055.03.01.09.025.165.059.125.057.294.148.484.257.382.22.855.517 1.329.806.474.288.947.567 1.36.76.206.096.395.172.586.215.19.042.415.09.669-.109.254-.199.285-.448.31-.659.025-.21.02-.432.005-.677a18.65 18.65 0 0 0-.215-1.657c-.095-.586-.198-1.172-.264-1.64a7.942 7.942 0 0 1-.065-.586c-.005-.087 0-.156.003-.19.016-.026.05-.086.102-.152.088-.113.219-.261.373-.426.308-.33.712-.731 1.109-1.137.396-.405.785-.813 1.08-1.183.147-.186.27-.36.366-.545.096-.185.208-.404.114-.731-.095-.327-.301-.436-.476-.528a2.905 2.905 0 0 0-.586-.214c-.435-.117-.967-.206-1.504-.288-.537-.082-1.077-.156-1.503-.231a6.253 6.253 0 0 1-.529-.114c-.077-.022-.135-.049-.163-.06-.019-.027-.06-.08-.101-.154a7.515 7.515 0 0 1-.254-.521c-.191-.424-.414-.97-.643-1.508a17.777 17.777 0 0 0-.693-1.492 3.362 3.362 0 0 0-.359-.55c-.131-.157-.287-.342-.6-.345zm-.009 1.17c.05.073.098.136.162.254.195.355.423.868.648 1.397.225.53.448 1.077.652 1.53.102.225.198.427.294.599.095.172.164.31.34.453.176.143.317.174.495.224.178.049.382.09.609.131.454.081.997.155 1.524.235.528.081 1.041.17 1.408.268.122.033.19.064.27.095-.049.076-.089.145-.17.248-.249.313-.623.71-1.013 1.107-.39.399-.795.801-1.124 1.153-.165.176-.31.34-.43.492-.119.152-.218.267-.287.495-.07.227-.053.384-.041.585.012.2.039.426.074.676.07.498.174 1.087.267 1.662.093.575.175 1.138.203 1.552.009.136.003.217 0 .31-.08-.027-.153-.048-.268-.101-.347-.162-.807-.43-1.272-.713-.466-.284-.94-.582-1.348-.817a7.042 7.042 0 0 0-.559-.296c-.169-.077-.299-.145-.518-.147-.219 0-.35.064-.52.138-.17.075-.358.173-.563.286-.41.227-.89.518-1.36.793-.47.275-.932.534-1.282.69-.116.052-.188.071-.27.097-.001-.093-.006-.174.005-.31.034-.413.124-.975.226-1.548.101-.573.214-1.16.291-1.657a8.72 8.72 0 0 0 .084-.675c.015-.2.034-.357-.032-.586-.066-.229-.163-.345-.28-.5a7.74 7.74 0 0 0-.423-.499c-.323-.358-.723-.767-1.107-1.172a16.142 16.142 0 0 1-.995-1.125c-.081-.105-.12-.174-.167-.251.08-.03.149-.06.27-.091.369-.093.884-.172 1.413-.243.528-.071 1.072-.135 1.527-.208.228-.036.433-.075.611-.121s.32-.075.498-.215.25-.277.347-.447c.098-.17.197-.37.302-.594.21-.449.442-.992.675-1.518a17.34 17.34 0 0 1 .668-1.385c.066-.117.114-.179.166-.252z" color="#000" font-family="sans-serif" font-weight="400" overflow="visible" transform="matrix(1.06795 0 0 .97117 -76.11 50.762)"/></g></svg>